<?xml version="1.0" standalone="no"?>
<!DOCTYPE svg PUBLIC "-//W3C//DTD SVG 20010904//EN"
 "http://www.w3.org/TR/2001/REC-SVG-20010904/DTD/svg10.dtd">
<svg version="1.0" xmlns="http://www.w3.org/2000/svg"
 width="1128.000000pt" height="1128.000000pt" viewBox="0 0 1128.000000 1128.000000"
 preserveAspectRatio="xMidYMid meet">
<metadata>
Created by potrace 1.11, written by Peter Selinger 2001-2013
</metadata>
<g transform="translate(0.000000,1128.000000) scale(0.100000,-0.100000)"
fill="#000000" stroke="none">
<path d="M4963 11268 c-21 -10 -40 -57 -57 -143 -7 -36 -14 -67 -21 -97 -3
-13 -8 -36 -10 -53 -3 -16 -8 -38 -11 -47 -3 -9 -6 -25 -8 -35 -2 -10 -11 -52
-20 -93 -36 -175 -40 -223 -40 -420 1 -162 5 -237 19 -300 3 -14 8 -38 10 -55
12 -66 48 -201 56 -210 5 -5 9 -19 9 -31 0 -13 5 -26 10 -29 6 -4 10 -12 8
-18 -2 -11 61 -155 82 -187 5 -8 17 -31 27 -50 9 -19 23 -41 29 -48 7 -6 16
-21 19 -32 3 -11 11 -20 16 -20 5 0 9 -4 9 -9 0 -5 40 -69 90 -143 l89 -133
-67 -31 c-106 -49 -149 -79 -240 -164 -113 -107 -197 -272 -201 -395 0 -16 -3
-42 -5 -58 -2 -15 0 -30 5 -33 4 -2 6 -10 3 -18 -3 -7 0 -33 6 -57 6 -24 12
-48 13 -54 1 -5 6 -16 10 -22 5 -7 6 -13 3 -13 -3 0 8 -26 24 -57 17 -32 30
-61 30 -65 0 -4 -12 -5 -27 -2 -16 3 -53 7 -83 9 -30 2 -55 4 -55 5 0 1 -27 3
-60 5 -33 2 -82 6 -110 9 -27 3 -88 8 -135 12 -47 4 -91 11 -97 16 -9 7 -13 7
-13 -1 0 -7 -3 -10 -8 -7 -6 4 -72 11 -202 21 -43 4 -159 15 -220 21 -25 3
-63 7 -85 9 -59 6 -191 31 -265 50 -36 9 -72 18 -80 20 -8 2 -27 8 -42 14 -16
6 -28 8 -28 5 0 -2 -13 2 -30 11 -16 8 -31 15 -32 15 -7 -3 -53 15 -158 59
-41 17 -80 31 -87 31 -6 0 -13 3 -15 8 -1 4 -25 18 -53 32 -27 13 -79 41 -114
62 -34 21 -65 38 -67 38 -4 0 -127 83 -134 90 -3 4 -26 21 -52 40 -27 18 -48
37 -48 42 0 4 -6 8 -14 8 -28 0 -375 358 -384 396 -2 8 -7 14 -12 14 -4 0 -21
20 -37 45 -15 25 -31 45 -35 45 -5 0 -8 5 -8 11 0 6 -11 25 -25 43 -14 18 -25
38 -25 44 0 7 -3 12 -7 12 -5 0 -13 10 -19 23 -6 12 -36 65 -66 117 -30 52
-67 115 -80 140 -224 399 -297 516 -335 544 -111 78 -264 -2 -272 -142 -2 -37
7 -61 65 -165 37 -67 72 -125 78 -129 6 -4 7 -8 2 -8 -5 0 -4 -6 2 -12 19 -24
242 -417 242 -428 0 -5 4 -10 10 -10 5 0 12 -11 16 -25 3 -14 10 -25 14 -25 4
0 10 -8 13 -17 8 -23 57 -106 67 -113 4 -3 13 -16 20 -29 7 -14 17 -30 22 -35
4 -6 25 -33 45 -61 21 -27 41 -54 45 -60 98 -132 377 -412 482 -485 12 -8 27
-20 34 -27 7 -7 17 -13 20 -13 4 0 19 -10 33 -22 14 -13 34 -28 45 -35 10 -7
62 -39 114 -72 130 -81 226 -132 234 -124 3 3 6 2 6 -4 0 -8 53 -37 90 -48 3
-1 27 -11 53 -23 27 -12 53 -22 58 -22 4 0 24 -9 44 -20 19 -11 35 -18 35 -15
0 3 24 -4 53 -14 28 -11 79 -27 112 -36 33 -9 71 -21 85 -25 21 -8 134 -32
205 -45 105 -19 238 -35 350 -40 33 -2 60 -4 60 -5 0 -2 80 -11 135 -14 30 -2
55 -5 55 -6 0 -1 25 -3 55 -5 30 -1 55 -4 55 -5 0 -1 23 -3 50 -4 76 -5 198
-16 221 -20 21 -4 154 -16 234 -21 25 -2 45 -4 45 -5 0 -1 27 -3 60 -5 67 -4
179 -16 182 -19 4 -3 -22 -16 -112 -56 -106 -48 -326 -160 -335 -171 -3 -3
-21 -14 -40 -24 -45 -23 -229 -144 -254 -167 -11 -10 -28 -20 -38 -24 -10 -3
-18 -9 -18 -14 0 -5 -8 -11 -17 -14 -10 -4 -33 -19 -50 -34 -18 -15 -47 -38
-64 -52 -132 -107 -286 -252 -430 -406 -46 -49 -241 -291 -334 -414 -27 -36
-53 -69 -58 -75 -26 -32 -185 -247 -254 -345 -45 -63 -88 -123 -97 -132 -9
-10 -16 -20 -16 -23 0 -2 -25 -40 -57 -85 l-56 -80 -541 -1 c-298 0 -559 -2
-580 -4 -27 -3 -57 -18 -100 -52 -80 -63 -77 -60 -106 -84 -14 -11 -40 -33
-58 -47 -56 -45 -365 -291 -392 -313 -14 -11 -91 -73 -171 -137 -81 -64 -157
-132 -169 -149 -44 -64 -35 -152 21 -218 49 -56 147 -68 214 -27 48 30 149
111 153 123 2 5 9 9 15 9 7 0 29 16 49 35 20 19 39 35 43 35 3 0 17 10 31 23
58 52 64 57 73 57 5 0 11 4 13 8 2 5 50 46 108 93 58 46 106 87 108 92 2 4 10
7 18 7 8 0 14 3 14 8 0 4 32 32 71 62 39 30 83 65 97 78 15 12 34 28 42 35 11
9 115 12 412 13 219 1 398 0 398 -2 0 -2 -13 -23 -30 -47 -16 -25 -30 -49 -30
-55 0 -6 -4 -12 -8 -14 -4 -1 -26 -32 -47 -68 -21 -36 -43 -66 -47 -68 -4 -2
-8 -12 -8 -22 0 -10 -4 -20 -8 -22 -7 -2 -42 -59 -174 -283 -10 -16 -23 -42
-29 -57 -6 -16 -15 -28 -20 -28 -5 0 -9 -7 -9 -15 0 -8 -8 -24 -17 -35 -10
-11 -16 -22 -14 -23 3 -1 -7 -20 -21 -42 -14 -22 -58 -103 -98 -180 -40 -77
-88 -168 -107 -203 -18 -34 -30 -62 -26 -62 5 0 3 -4 -2 -8 -11 -7 -22 -29
-115 -227 -72 -153 -79 -168 -82 -184 -2 -8 -9 -23 -17 -32 -8 -10 -16 -24
-17 -32 -1 -8 -12 -36 -24 -63 -13 -27 -24 -53 -26 -59 -1 -5 -21 -55 -43
-109 -23 -55 -41 -105 -41 -113 0 -7 -4 -13 -9 -13 -5 0 -12 -15 -16 -32 -9
-40 -8 -35 -29 -83 -9 -21 -18 -46 -20 -55 -2 -8 -9 -28 -15 -45 -14 -32 -98
-278 -106 -308 -3 -9 -7 -25 -9 -35 -2 -9 -9 -29 -15 -44 -6 -16 -8 -28 -5
-28 2 0 -1 -10 -8 -23 -6 -12 -13 -26 -14 -32 -1 -5 -25 -98 -53 -205 -27
-107 -52 -206 -55 -220 -3 -14 -7 -34 -10 -45 -7 -33 -46 -238 -52 -274 -3
-18 -8 -43 -10 -55 -3 -11 -7 -37 -9 -56 -2 -19 -6 -48 -9 -65 -9 -65 -20
-154 -31 -265 -18 -191 -26 -498 -14 -565 4 -22 10 -56 14 -75 3 -19 8 -46 10
-59 2 -14 8 -34 14 -45 5 -12 19 -46 29 -77 21 -58 65 -143 88 -170 8 -8 14
-19 14 -22 0 -21 138 -157 199 -197 25 -16 51 -33 56 -38 6 -4 13 -9 18 -10 4
-1 29 -11 55 -22 62 -28 173 -59 242 -68 102 -13 432 -4 460 13 3 2 26 6 50
10 25 3 53 8 62 11 9 3 27 7 40 10 39 9 53 12 53 14 0 3 49 12 70 14 11 0 23
5 26 9 3 4 17 10 30 12 13 3 69 21 124 41 55 20 106 36 113 37 6 0 12 4 12 9
0 4 4 8 9 8 12 0 126 52 311 143 80 39 147 71 150 72 3 0 12 5 20 10 8 5 56
31 105 56 134 69 229 120 240 129 6 5 17 10 25 12 8 2 17 6 20 9 3 3 57 35
120 70 63 35 118 68 122 74 4 5 8 6 8 2 0 -4 20 6 44 23 25 16 47 30 51 30 3
0 18 8 33 19 15 10 81 51 147 92 66 40 123 78 127 84 4 5 8 6 8 2 0 -4 6 -3
13 3 6 6 72 51 146 101 73 50 138 95 145 100 47 39 105 77 110 72 3 -4 6 -2 6
4 0 5 20 24 45 42 24 17 50 37 57 44 7 7 29 24 48 37 19 14 42 32 51 40 8 8
35 31 59 50 88 71 154 132 324 296 6 6 38 41 71 79 33 37 67 75 76 84 8 9 29
34 45 56 16 22 37 49 47 60 21 22 12 29 75 -54 93 -121 306 -338 452 -461 36
-30 67 -57 70 -60 11 -13 207 -168 240 -190 19 -13 37 -27 40 -30 3 -4 28 -21
55 -40 28 -19 52 -36 55 -40 3 -3 84 -58 180 -122 283 -187 533 -338 795 -478
44 -24 109 -60 145 -80 104 -58 600 -301 720 -353 44 -18 125 -49 125 -47 0 1
14 -4 30 -10 17 -7 37 -13 45 -15 8 -2 15 -4 15 -5 0 -1 7 -3 15 -5 8 -1 35
-8 60 -16 25 -7 50 -13 55 -15 6 -1 28 -6 50 -12 41 -11 84 -21 120 -27 11 -2
34 -6 50 -9 79 -16 142 -20 280 -20 83 0 170 3 195 7 61 9 176 42 225 63 22
10 43 17 48 16 4 -1 7 2 7 8 0 5 6 10 14 10 7 0 19 7 26 15 7 8 16 13 20 10 5
-3 10 -2 12 3 1 4 23 23 48 42 117 89 219 232 270 380 12 36 24 72 25 80 2 8
4 16 5 18 2 1 4 7 5 12 1 6 3 11 5 13 1 1 3 9 5 18 25 128 25 349 0 649 -2 25
-6 74 -9 110 -3 36 -9 76 -12 90 -7 27 -14 82 -14 119 0 12 -3 28 -7 34 -4 6
-8 27 -10 47 -2 19 -9 60 -15 90 -6 30 -12 64 -12 75 -1 11 -4 25 -7 30 -3 6
-6 26 -8 45 -2 19 -7 37 -12 38 -5 2 -7 8 -4 12 3 5 1 28 -5 52 -6 24 -13 54
-16 68 -2 14 -7 32 -10 40 -3 8 -9 33 -14 55 -5 22 -18 74 -29 115 -11 41 -27
102 -36 135 -8 33 -20 68 -25 77 -6 10 -10 25 -10 33 0 13 -20 80 -46 155 -3
8 -5 16 -5 18 1 1 -5 18 -13 37 -8 19 -12 35 -9 35 3 0 0 6 -6 13 -6 8 -12 22
-14 33 -2 10 -8 30 -14 44 -5 14 -25 68 -43 120 -18 52 -37 99 -42 104 -4 6
-8 16 -8 23 0 8 -9 33 -20 55 -11 23 -20 47 -20 53 0 7 -6 25 -14 41 -31 65
-48 103 -50 116 -2 7 -14 38 -28 68 -14 30 -31 72 -39 92 -7 21 -17 38 -21 38
-4 0 -8 7 -8 15 0 9 -10 35 -22 58 -12 23 -23 44 -23 47 -7 26 -224 466 -284
575 -19 33 -43 78 -55 100 -11 22 -23 42 -26 45 -3 3 -18 30 -33 60 -15 30
-32 62 -37 70 -42 67 -130 224 -130 230 0 5 -6 15 -13 22 -7 7 -33 47 -57 88
-25 41 -48 77 -52 78 -5 2 -8 8 -8 14 0 9 -43 80 -90 148 -9 14 -24 39 -33 56
l-16 31 396 0 395 0 32 -26 c17 -14 36 -30 42 -36 6 -5 26 -21 44 -35 19 -14
47 -36 64 -50 17 -14 39 -32 49 -40 10 -8 27 -22 37 -30 9 -8 32 -26 51 -40
18 -14 63 -50 100 -80 37 -30 107 -86 155 -125 98 -78 117 -93 144 -115 9 -8
32 -26 50 -40 18 -14 42 -33 54 -44 64 -56 163 -58 232 -4 33 26 63 92 64 136
0 72 -31 113 -180 230 -47 36 -90 71 -97 77 -6 5 -24 20 -40 32 -15 12 -39 31
-53 42 -30 25 -27 22 -120 96 -41 33 -80 64 -87 70 -6 5 -26 21 -44 35 -18 14
-41 33 -51 43 -10 9 -20 17 -23 17 -4 0 -28 18 -59 45 -9 8 -86 70 -121 98 -5
4 -21 16 -35 28 -13 11 -40 30 -60 42 -35 22 -37 22 -604 25 -430 2 -571 6
-580 15 -6 7 -37 48 -67 92 -66 96 -129 185 -141 200 -4 5 -34 46 -65 90 -60
84 -70 97 -90 120 -7 7 -13 18 -13 24 0 6 -4 11 -8 11 -4 0 -15 12 -24 28 -9
15 -25 36 -35 47 -10 12 -29 36 -42 55 -13 19 -30 42 -38 50 -7 8 -42 53 -78
100 -36 47 -76 97 -90 113 -14 15 -25 30 -25 33 0 6 -80 101 -150 178 -96 106
-281 285 -357 346 -82 66 -129 106 -131 113 -2 4 -10 7 -18 7 -8 0 -17 7 -20
15 -4 8 -12 15 -20 15 -7 0 -17 6 -21 13 -9 13 -246 174 -251 169 -1 -1 -8 2
-15 8 -40 36 -316 180 -469 245 -37 16 -66 30 -65 31 2 2 53 7 207 19 25 2 45
4 45 5 0 1 18 3 40 5 48 3 170 14 240 21 50 5 92 9 215 19 36 3 81 7 100 9 19
2 67 7 105 10 39 3 86 8 105 11 19 2 69 7 110 10 98 7 168 14 205 19 17 3 53
8 80 12 28 3 59 8 70 11 11 2 31 6 45 9 156 31 365 93 487 145 22 10 44 15 47
12 3 -4 6 -1 6 5 0 7 5 12 10 12 16 0 164 71 171 82 3 5 10 10 15 10 24 1 236
123 242 140 2 4 9 8 15 8 10 0 101 65 188 132 97 76 330 302 394 383 17 21 35
43 41 49 20 22 140 187 176 243 32 52 189 324 412 715 83 146 96 191 76 254
-28 86 -127 137 -216 113 -49 -14 -92 -60 -139 -147 -22 -39 -43 -72 -47 -72
-4 0 -8 -5 -8 -11 0 -9 -102 -192 -184 -332 -19 -33 -40 -70 -112 -198 -64
-114 -212 -329 -226 -329 -4 0 -8 -4 -8 -9 0 -9 -47 -65 -117 -140 -18 -19
-33 -38 -33 -43 0 -4 -4 -8 -8 -8 -5 0 -33 -24 -63 -52 -30 -29 -76 -71 -103
-93 -27 -22 -58 -48 -69 -58 -12 -10 -36 -27 -54 -38 -18 -11 -33 -26 -33 -31
0 -6 -3 -9 -6 -5 -3 3 -15 -3 -27 -14 -11 -10 -27 -19 -34 -19 -7 0 -13 -4
-13 -9 0 -5 -15 -16 -32 -25 -18 -9 -46 -25 -63 -36 -38 -23 -236 -123 -290
-145 -22 -9 -48 -20 -57 -25 -10 -6 -22 -10 -27 -10 -5 0 -22 -5 -38 -12 -15
-6 -30 -12 -33 -13 -3 -1 -38 -11 -79 -24 -41 -12 -81 -24 -90 -26 -9 -2 -43
-10 -76 -19 -60 -15 -85 -20 -160 -31 -23 -3 -50 -7 -60 -9 -11 -2 -54 -7 -95
-11 -122 -11 -161 -14 -230 -20 -36 -4 -90 -8 -120 -11 -30 -2 -68 -6 -85 -8
-16 -2 -66 -6 -110 -10 -44 -4 -100 -10 -123 -12 -51 -5 -152 -13 -237 -19
-33 -3 -70 -7 -82 -10 -28 -7 -29 2 -4 52 41 80 55 119 67 183 10 59 11 90 1
90 -5 0 -4 6 2 13 6 8 9 16 7 18 -3 2 -7 22 -9 44 -25 215 -199 430 -434 536
l-72 32 17 26 c9 14 19 28 23 31 3 3 8 10 10 15 8 20 143 220 153 227 6 4 7 8
3 8 -4 0 3 15 16 33 29 37 127 235 127 254 0 7 5 13 12 13 6 0 9 3 5 6 -3 3 2
27 12 53 11 25 19 49 20 54 0 4 1 8 2 10 0 1 2 9 4 17 2 8 10 40 18 70 9 30
18 72 21 94 4 21 8 41 10 45 10 17 20 173 20 316 0 176 -7 251 -30 364 -9 42
-18 87 -20 101 -3 14 -9 41 -14 60 -5 19 -12 49 -15 65 -18 89 -23 115 -34
160 -6 22 -10 41 -11 43 0 1 0 3 -1 5 0 1 -2 13 -5 27 -5 30 -47 70 -73 70
-27 0 -60 -31 -69 -65 -9 -32 13 -156 75 -419 2 -11 6 -30 7 -41 2 -11 6 -31
9 -45 27 -102 39 -356 23 -510 -6 -63 -13 -105 -16 -105 -1 0 -3 -11 -5 -25
-4 -28 -11 -63 -20 -90 -3 -10 -7 -27 -9 -37 -19 -97 -175 -424 -215 -453 -4
-3 -10 -12 -14 -20 -3 -8 -50 -80 -104 -160 l-98 -145 -55 5 c-76 6 -234 5
-298 -2 l-53 -6 -34 47 c-19 25 -35 51 -35 58 0 6 -4 13 -8 15 -12 4 -92 125
-92 137 0 6 -4 11 -8 11 -5 0 -15 12 -23 28 -8 15 -22 36 -31 46 -10 11 -18
26 -18 33 0 7 -4 13 -10 13 -5 0 -10 6 -10 14 0 8 -3 16 -7 18 -18 7 -130 247
-137 289 -1 8 -4 19 -8 24 -3 6 -9 26 -14 45 -4 19 -9 42 -11 50 -3 8 -6 24
-8 35 -2 11 -4 20 -5 20 -2 0 -4 9 -6 20 -2 11 -6 34 -8 50 -24 134 -25 428
-2 535 11 51 16 76 21 100 8 40 27 135 40 195 3 11 7 29 9 40 3 11 12 54 21
95 17 77 19 88 16 128 -1 28 -44 72 -68 71 -10 0 -28 -5 -40 -11z"/>
</g>
</svg>
