<?xml version="1.0" encoding="UTF-8" standalone="no"?>
<!-- Generator: Adobe Illustrator 19.0.0, SVG Export Plug-In . SVG Version: 6.00 Build 0)  -->

<svg
   xmlns:dc="http://purl.org/dc/elements/1.1/"
   xmlns:cc="http://creativecommons.org/ns#"
   xmlns:rdf="http://www.w3.org/1999/02/22-rdf-syntax-ns#"
   xmlns:svg="http://www.w3.org/2000/svg"
   xmlns="http://www.w3.org/2000/svg"
   xmlns:sodipodi="http://sodipodi.sourceforge.net/DTD/sodipodi-0.dtd"
   xmlns:inkscape="http://www.inkscape.org/namespaces/inkscape"
   version="1.1"
   id="Layer_1"
   x="0px"
   y="0px"
   viewBox="0 0 507.066 507.066"
   style="enable-background:new 0 0 507.066 507.066;"
   xml:space="preserve"
   sodipodi:docname="corn.svg"
   inkscape:version="0.92.3 (2405546, 2018-03-11)"><metadata
   id="metadata51721"><rdf:RDF><cc:Work
       rdf:about=""><dc:format>image/svg+xml</dc:format><dc:type
         rdf:resource="http://purl.org/dc/dcmitype/StillImage" /></cc:Work></rdf:RDF></metadata><defs
   id="defs51719" /><sodipodi:namedview
   pagecolor="#ffffff"
   bordercolor="#666666"
   borderopacity="1"
   objecttolerance="10"
   gridtolerance="10"
   guidetolerance="10"
   inkscape:pageopacity="0"
   inkscape:pageshadow="2"
   inkscape:window-width="2400"
   inkscape:window-height="1474"
   id="namedview51717"
   showgrid="false"
   inkscape:zoom="0.46542264"
   inkscape:cx="151.47523"
   inkscape:cy="253.533"
   inkscape:window-x="0"
   inkscape:window-y="60"
   inkscape:window-maximized="1"
   inkscape:current-layer="Layer_1" />
<rect
   x="229.533"
   y="53.6"
   style="fill:#D38200;"
   width="72"
   height="280"
   id="rect51504" />
<ellipse
   style="fill:#EA990A;"
   cx="195.933"
   cy="104.8"
   rx="32"
   ry="26.4"
   id="ellipse51506" />
<path
   style="fill:#D38200;"
   d="M195.933,78.4c17.6,0,32,12,32,26.4s-14.4,26.4-32,26.4"
   id="path51508" />
<path
   style="fill:#F2B630;"
   d="M191.133,87.2c0.8,2.4-3.2,7.2-8.8,10.4c-5.6,3.2-11.2,4-12,1.6s3.2-7.2,8.8-10.4  C184.733,85.6,190.333,84.8,191.133,87.2z"
   id="path51510" />
<ellipse
   style="fill:#EA990A;"
   cx="189.533"
   cy="153.6"
   rx="32"
   ry="26.4"
   id="ellipse51512" />
<path
   style="fill:#D38200;"
   d="M189.533,127.2c17.6,0,32,12,32,26.4s-14.4,26.4-32,26.4"
   id="path51514" />
<path
   style="fill:#F2B630;"
   d="M184.733,136c0.8,2.4-3.2,7.2-8.8,10.4s-11.2,4-12,1.6s3.2-7.2,8.8-10.4S183.933,133.6,184.733,136z"
   id="path51516" />
<ellipse
   style="fill:#EA990A;"
   cx="183.133"
   cy="202.4"
   rx="32"
   ry="26.4"
   id="ellipse51518" />
<path
   style="fill:#D38200;"
   d="M183.133,176c17.6,0,32,12,32,26.4s-14.4,26.4-32,26.4"
   id="path51520" />
<path
   style="fill:#F2B630;"
   d="M178.333,184.8c0.8,2.4-3.2,7.2-8.8,10.4s-11.2,4-12,1.6s3.2-7.2,8.8-10.4  C171.933,183.2,176.733,182.4,178.333,184.8z"
   id="path51522" />
<ellipse
   style="fill:#EA990A;"
   cx="180.733"
   cy="251.2"
   rx="32"
   ry="26.4"
   id="ellipse51524" />
<path
   style="fill:#D38200;"
   d="M180.733,224.8c17.6,0,32,12,32,26.4c0,14.4-14.4,26.4-32,26.4"
   id="path51526" />
<path
   style="fill:#F2B630;"
   d="M175.933,233.6c0.8,2.4-3.2,7.2-8.8,10.4s-11.2,4-12,1.6s3.2-7.2,8.8-10.4  C169.533,232,175.133,231.2,175.933,233.6z"
   id="path51528" />
<ellipse
   style="fill:#EA990A;"
   cx="181.533"
   cy="300"
   rx="32"
   ry="26.4"
   id="ellipse51530" />
<path
   style="fill:#D38200;"
   d="M181.533,273.6c17.6,0,32,12,32,26.4s-14.4,26.4-32,26.4"
   id="path51532" />
<path
   style="fill:#F7ECB7;"
   d="M176.733,282.4c0.8,2.4-3.2,7.2-8.8,10.4c-5.6,3.2-11.2,4-12,1.6s3.2-7.2,8.8-10.4  S175.133,280,176.733,282.4z"
   id="path51534" />
<ellipse
   style="fill:#FFCD50;"
   cx="195.933"
   cy="348.8"
   rx="32"
   ry="26.4"
   id="ellipse51536" />
<path
   style="fill:#F2B630;"
   d="M195.933,322.4c17.6,0,32,12,32,26.4s-14.4,26.4-32,26.4"
   id="path51538" />
<path
   style="fill:#F7ECB7;"
   d="M191.133,331.2c0.8,2.4-3.2,7.2-8.8,10.4c-5.6,3.2-11.2,4-12,1.6s3.2-7.2,8.8-10.4  C184.733,329.6,190.333,328.8,191.133,331.2z"
   id="path51540" />
<ellipse
   style="fill:#FFCD50;"
   cx="195.933"
   cy="397.6"
   rx="32"
   ry="26.4"
   id="ellipse51542" />
<path
   style="fill:#F2B630;"
   d="M195.933,371.2c17.6,0,32,12,32,26.4s-14.4,26.4-32,26.4"
   id="path51544" />
<path
   style="fill:#F7ECB7;"
   d="M191.133,380c0.8,2.4-3.2,7.2-8.8,10.4c-5.6,3.2-11.2,4-12,1.6s3.2-7.2,8.8-10.4  C184.733,378.4,190.333,377.6,191.133,380z"
   id="path51546" />
<path
   style="fill:#34B515;"
   d="M259.133,339.2c-53.6-53.6-140-92-192.8-76.8l-0.8-0.8c0,0,0,0,0,0.8c0,0,0,0-0.8,0l0.8,0.8  c-15.2,52,23.2,139.2,76.8,192.8s107.2,59.2,159.2,43.2l0.8,0.8c0,0,0,0,0-0.8c0,0,0,0,0.8,0l-0.8-0.8  C318.333,446.4,313.533,392.8,259.133,339.2z"
   id="path51548" />
<path
   style="fill:#239B02;"
   d="M302.333,499.2L302.333,499.2C302.333,500,302.333,499.2,302.333,499.2c0.8,0,0.8,0,0.8,0H302.333  c16-52.8,11.2-106.4-43.2-160c-53.6-53.6-140-92-192.8-76.8l-0.8-0.8c0,0,0,0,0,0.8c0,0,0,0-0.8,0l0.8,0.8"
   id="path51550" />
<ellipse
   style="fill:#F2B630;"
   cx="222.333"
   cy="64.8"
   rx="32"
   ry="26.4"
   id="ellipse51552" />
<path
   style="fill:#FFCD50;"
   d="M217.533,47.2c0.8,2.4-3.2,7.2-8.8,10.4c-5.6,3.2-11.2,4-12,1.6s3.2-7.2,8.8-10.4  C211.133,45.6,216.733,44.8,217.533,47.2z"
   id="path51554" />
<ellipse
   style="fill:#F2B630;"
   cx="222.333"
   cy="113.6"
   rx="32"
   ry="26.4"
   id="ellipse51556" />
<path
   style="fill:#FFCD50;"
   d="M217.533,96c0.8,2.4-3.2,7.2-8.8,10.4c-5.6,3.2-11.2,4-12,1.6s3.2-7.2,8.8-10.4  C211.133,94.4,216.733,93.6,217.533,96z"
   id="path51558" />
<ellipse
   style="fill:#F2B630;"
   cx="220.733"
   cy="162.4"
   rx="32"
   ry="26.4"
   id="ellipse51560" />
<path
   style="fill:#FFCD50;"
   d="M215.933,144.8c0.8,2.4-3.2,7.2-8.8,10.4s-11.2,4-12,1.6s3.2-7.2,8.8-10.4  S215.133,142.4,215.933,144.8z"
   id="path51562" />
<ellipse
   style="fill:#F2B630;"
   cx="218.333"
   cy="211.2"
   rx="32"
   ry="26.4"
   id="ellipse51564" />
<path
   style="fill:#FFCD50;"
   d="M213.533,193.6c0.8,2.4-3.2,7.2-8.8,10.4s-11.2,4-12,1.6s3.2-7.2,8.8-10.4  C207.133,192,212.733,191.2,213.533,193.6z"
   id="path51566" />
<ellipse
   style="fill:#F2B630;"
   cx="218.333"
   cy="260"
   rx="32"
   ry="26.4"
   id="ellipse51568" />
<path
   style="fill:#FFCD50;"
   d="M213.533,242.4c0.8,2.4-3.2,7.2-8.8,10.4s-11.2,4-12,1.6c-0.8-2.4,3.2-7.2,8.8-10.4  S212.733,240,213.533,242.4z"
   id="path51570" />
<ellipse
   style="fill:#F2B630;"
   cx="222.333"
   cy="308.8"
   rx="32"
   ry="26.4"
   id="ellipse51572" />
<path
   style="fill:#FFCD50;"
   d="M217.533,291.2c0.8,2.4-3.2,7.2-8.8,10.4c-5.6,3.2-11.2,4-12,1.6s3.2-7.2,8.8-10.4  S216.733,288.8,217.533,291.2z"
   id="path51574" />
<ellipse
   style="fill:#F2B630;"
   cx="222.333"
   cy="357.6"
   rx="32"
   ry="26.4"
   id="ellipse51576" />
<path
   style="fill:#FFCD50;"
   d="M217.533,340c0.8,2.4-3.2,7.2-8.8,10.4c-5.6,3.2-11.2,4-12,1.6s3.2-7.2,8.8-10.4  S216.733,337.6,217.533,340z"
   id="path51578" />
<ellipse
   style="fill:#EA990A;"
   cx="325.533"
   cy="104.8"
   rx="32"
   ry="26.4"
   id="ellipse51580" />
<path
   style="fill:#D38200;"
   d="M325.533,78.4c-17.6,0-32,12-32,26.4s14.4,26.4,32,26.4"
   id="path51582" />
<path
   style="fill:#F2B630;"
   d="M330.333,87.2c-0.8,2.4,3.2,7.2,8.8,10.4c5.6,3.2,11.2,4,12,1.6s-3.2-7.2-8.8-10.4  C336.733,85.6,331.133,84.8,330.333,87.2z"
   id="path51584" />
<ellipse
   style="fill:#EA990A;"
   cx="331.933"
   cy="153.6"
   rx="32"
   ry="26.4"
   id="ellipse51586" />
<path
   style="fill:#D38200;"
   d="M331.933,127.2c-17.6,0-32,12-32,26.4s14.4,26.4,32,26.4"
   id="path51588" />
<path
   style="fill:#F2B630;"
   d="M336.733,136c-0.8,2.4,3.2,7.2,8.8,10.4c5.6,3.2,11.2,4,12,1.6s-3.2-7.2-8.8-10.4  C343.133,134.4,337.533,133.6,336.733,136z"
   id="path51590" />
<ellipse
   style="fill:#EA990A;"
   cx="338.333"
   cy="202.4"
   rx="32"
   ry="26.4"
   id="ellipse51592" />
<path
   style="fill:#D38200;"
   d="M339.133,176c-17.6,0-32,12-32,26.4s14.4,26.4,32,26.4"
   id="path51594" />
<path
   style="fill:#F2B630;"
   d="M343.933,184.8c-0.8,2.4,3.2,7.2,8.8,10.4c5.6,3.2,11.2,4,12,1.6s-3.2-7.2-8.8-10.4  C349.533,183.2,344.733,182.4,343.933,184.8z"
   id="path51596" />
<ellipse
   style="fill:#EA990A;"
   cx="340.733"
   cy="251.2"
   rx="32"
   ry="26.4"
   id="ellipse51598" />
<path
   style="fill:#D38200;"
   d="M340.733,224.8c-17.6,0-32,12-32,26.4c0,14.4,14.4,26.4,32,26.4"
   id="path51600" />
<path
   style="fill:#F2B630;"
   d="M345.533,233.6c-0.8,2.4,3.2,7.2,8.8,10.4c5.6,3.2,11.2,4,12,1.6s-3.2-7.2-8.8-10.4  S346.333,231.2,345.533,233.6z"
   id="path51602" />
<ellipse
   style="fill:#EA990A;"
   cx="340.733"
   cy="300"
   rx="32"
   ry="26.4"
   id="ellipse51604" />
<path
   style="fill:#D38200;"
   d="M340.733,273.6c-17.6,0-32,12-32,26.4s14.4,26.4,32,26.4"
   id="path51606" />
<path
   style="fill:#F7ECB7;"
   d="M345.533,282.4c-0.8,2.4,3.2,7.2,8.8,10.4c5.6,3.2,11.2,4,12,1.6s-3.2-7.2-8.8-10.4  C351.133,280.8,346.333,280,345.533,282.4z"
   id="path51608" />
<ellipse
   style="fill:#FFCD50;"
   cx="325.533"
   cy="348.8"
   rx="32"
   ry="26.4"
   id="ellipse51610" />
<path
   style="fill:#F2B630;"
   d="M325.533,322.4c-17.6,0-32,12-32,26.4s14.4,26.4,32,26.4"
   id="path51612" />
<path
   style="fill:#F7ECB7;"
   d="M330.333,331.2c-0.8,2.4,3.2,6.4,8.8,10.4c5.6,3.2,11.2,4,12,1.6s-3.2-7.2-8.8-10.4  C336.733,329.6,331.133,328.8,330.333,331.2z"
   id="path51614" />
<ellipse
   style="fill:#FFCD50;"
   cx="325.533"
   cy="397.6"
   rx="32"
   ry="26.4"
   id="ellipse51616" />
<path
   style="fill:#F2B630;"
   d="M325.533,371.2c-17.6,0-32,12-32,26.4s14.4,26.4,32,26.4"
   id="path51618" />
<path
   style="fill:#F7ECB7;"
   d="M330.333,380c-0.8,2.4,3.2,7.2,8.8,10.4c5.6,3.2,11.2,4,12,1.6s-3.2-7.2-8.8-10.4  C336.733,378.4,331.133,377.6,330.333,380z"
   id="path51620" />
<ellipse
   style="fill:#F2B630;"
   cx="299.133"
   cy="64.8"
   rx="32"
   ry="26.4"
   id="ellipse51622" />
<path
   style="fill:#FFCD50;"
   d="M303.933,47.2c-0.8,2.4,3.2,7.2,8.8,10.4c5.6,3.2,11.2,4,12,1.6s-3.2-7.2-8.8-10.4  C310.333,45.6,304.733,44.8,303.933,47.2z"
   id="path51624" />
<ellipse
   style="fill:#F2B630;"
   cx="299.133"
   cy="113.6"
   rx="32"
   ry="26.4"
   id="ellipse51626" />
<path
   style="fill:#FFCD50;"
   d="M303.933,96c-0.8,2.4,3.2,7.2,8.8,10.4c5.6,3.2,11.2,4,12,1.6s-3.2-7.2-8.8-10.4  C310.333,94.4,304.733,93.6,303.933,96z"
   id="path51628" />
<ellipse
   style="fill:#F2B630;"
   cx="300.733"
   cy="162.4"
   rx="32"
   ry="26.4"
   id="ellipse51630" />
<path
   style="fill:#FFCD50;"
   d="M305.533,144.8c-0.8,2.4,3.2,7.2,8.8,10.4c5.6,3.2,11.2,4,12,1.6s-3.2-7.2-8.8-10.4  C311.933,143.2,306.333,142.4,305.533,144.8z"
   id="path51632" />
<ellipse
   style="fill:#F2B630;"
   cx="303.133"
   cy="211.2"
   rx="32"
   ry="26.4"
   id="ellipse51634" />
<path
   style="fill:#FFCD50;"
   d="M307.933,193.6c-0.8,2.4,3.2,7.2,8.8,10.4c5.6,3.2,11.2,4,12,1.6s-3.2-7.2-8.8-10.4  C314.333,192,308.733,191.2,307.933,193.6z"
   id="path51636" />
<ellipse
   style="fill:#F2B630;"
   cx="303.133"
   cy="260"
   rx="32"
   ry="26.4"
   id="ellipse51638" />
<path
   style="fill:#FFCD50;"
   d="M307.933,242.4c-0.8,2.4,3.2,7.2,8.8,10.4c5.6,3.2,11.2,4,12,1.6c0.8-2.4-3.2-7.2-8.8-10.4  C314.333,240.8,308.733,240,307.933,242.4z"
   id="path51640" />
<ellipse
   style="fill:#F2B630;"
   cx="299.133"
   cy="308.8"
   rx="32"
   ry="26.4"
   id="ellipse51642" />
<path
   style="fill:#FFCD50;"
   d="M303.933,291.2c-0.8,2.4,3.2,7.2,8.8,10.4c5.6,3.2,11.2,4,12,1.6s-3.2-7.2-8.8-10.4  C310.333,289.6,304.733,288.8,303.933,291.2z"
   id="path51644" />
<ellipse
   style="fill:#F2B630;"
   cx="299.133"
   cy="357.6"
   rx="32"
   ry="26.4"
   id="ellipse51646" />
<path
   style="fill:#EA990A;"
   d="M299.133,331.2c-17.6,0-32,12-32,26.4s14.4,26.4,32,26.4"
   id="path51648" />
<g
   id="g51654">
	<path
   style="fill:#FFCD50;"
   d="M303.933,340c-0.8,2.4,3.2,7.2,8.8,10.4c5.6,3.2,11.2,4,12,1.6s-3.2-7.2-8.8-10.4   C310.333,338.4,304.733,337.6,303.933,340z"
   id="path51650" />
	<ellipse
   style="fill:#FFCD50;"
   cx="260.733"
   cy="26.4"
   rx="32"
   ry="26.4"
   id="ellipse51652" />
</g>
<path
   style="fill:#F7ECB7;"
   d="M255.933,8.8c0.8,2.4-3.2,7.2-8.8,10.4s-11.2,4-12,1.6s3.2-7.2,8.8-10.4S255.133,6.4,255.933,8.8z"
   id="path51656" />
<ellipse
   style="fill:#FFCD50;"
   cx="260.733"
   cy="75.2"
   rx="32"
   ry="26.4"
   id="ellipse51658" />
<path
   style="fill:#F7ECB7;"
   d="M255.933,57.6c0.8,2.4-3.2,7.2-8.8,10.4c-5.6,3.2-11.2,4-12,1.6s3.2-7.2,8.8-10.4  C249.533,56,255.133,55.2,255.933,57.6z"
   id="path51660" />
<ellipse
   style="fill:#FFCD50;"
   cx="260.733"
   cy="124"
   rx="32"
   ry="26.4"
   id="ellipse51662" />
<path
   style="fill:#F7ECB7;"
   d="M255.933,106.4c0.8,2.4-3.2,7.2-8.8,10.4c-5.6,3.2-11.2,4-12,1.6s3.2-7.2,8.8-10.4  S255.133,104,255.933,106.4z"
   id="path51664" />
<ellipse
   style="fill:#FFCD50;"
   cx="260.733"
   cy="172.8"
   rx="32"
   ry="26.4"
   id="ellipse51666" />
<path
   style="fill:#F7ECB7;"
   d="M255.933,155.2c0.8,2.4-3.2,7.2-8.8,10.4s-11.2,4-12,1.6s3.2-7.2,8.8-10.4  C249.533,153.6,255.133,152.8,255.933,155.2z"
   id="path51668" />
<ellipse
   style="fill:#FFCD50;"
   cx="260.733"
   cy="221.6"
   rx="32"
   ry="26.4"
   id="ellipse51670" />
<path
   style="fill:#F7ECB7;"
   d="M255.933,204c0.8,2.4-3.2,7.2-8.8,10.4s-11.2,4-12,1.6s3.2-7.2,8.8-10.4  C249.533,201.6,255.133,201.6,255.933,204z"
   id="path51672" />
<ellipse
   style="fill:#FFCD50;"
   cx="260.733"
   cy="270.4"
   rx="32"
   ry="26.4"
   id="ellipse51674" />
<path
   style="fill:#F7ECB7;"
   d="M255.933,252c0.8,2.4-3.2,7.2-8.8,10.4c-5.6,3.2-11.2,4-12,1.6s3.2-7.2,8.8-10.4  C249.533,250.4,255.133,249.6,255.933,252z"
   id="path51676" />
<ellipse
   style="fill:#FFCD50;"
   cx="260.733"
   cy="319.2"
   rx="32"
   ry="26.4"
   id="ellipse51678" />
<path
   style="fill:#F7ECB7;"
   d="M255.933,300.8c0.8,2.4-3.2,7.2-8.8,10.4c-5.6,3.2-11.2,4-12,1.6s3.2-7.2,8.8-10.4  C249.533,299.2,255.133,298.4,255.933,300.8z"
   id="path51680" />
<path
   style="fill:#239B02;"
   d="M247.933,339.2c53.6-53.6,140-92,192.8-76.8l0.8-0.8c0,0,0,0,0,0.8c0,0,0,0,0.8,0l-0.8,0.8  c15.2,52-23.2,139.2-76.8,192.8s-107.2,59.2-159.2,43.2l-0.8,0.8c0,0,0,0,0-0.8c0,0,0,0-0.8,0l0.8-0.8  C188.733,446.4,193.533,392.8,247.933,339.2z"
   id="path51682" />
<path
   style="fill:#34B515;"
   d="M204.733,499.2L204.733,499.2C204.733,500,204.733,499.2,204.733,499.2c-0.8,0-0.8,0-0.8,0H204.733  c-16-52.8-11.2-106.4,43.2-160c53.6-53.6,140-92,192.8-76.8l0.8-0.8c0,0,0,0,0,0.8c0,0,0,0,0.8,0l-0.8,0.8"
   id="path51684" />
<g
   id="g51686">
</g>
<g
   id="g51688">
</g>
<g
   id="g51690">
</g>
<g
   id="g51692">
</g>
<g
   id="g51694">
</g>
<g
   id="g51696">
</g>
<g
   id="g51698">
</g>
<g
   id="g51700">
</g>
<g
   id="g51702">
</g>
<g
   id="g51704">
</g>
<g
   id="g51706">
</g>
<g
   id="g51708">
</g>
<g
   id="g51710">
</g>
<g
   id="g51712">
</g>
<g
   id="g51714">
</g>
<g
   id="g52447"
   transform="matrix(0.39059924,0.22551258,-0.22551258,0.39059924,-244.71116,47.880849)"><g
     transform="translate(914.86871,-369.64825)"
     id="g49617"><g
       id="g49597"><path
         inkscape:connector-curvature="0"
         id="path49589"
         d="m 229.636,123.595 c -0.265,0 -0.538,-0.009 -0.812,-0.035 l -64.247,-5.844 C 141.625,115.633 119.362,107.776 100.18,94.985 82.348,83.103 67.315,66.984 56.678,48.375 L 36.586,13.215 C 34.158,8.987 35.633,3.593 39.87,1.174 44.09,-1.262 49.492,0.221 51.911,4.458 l 20.1,35.16 c 9.278,16.243 22.413,30.305 37.959,40.678 16.746,11.158 36.175,18.017 56.214,19.836 l 64.247,5.844 c 4.855,0.441 8.43,4.74 7.989,9.587 -0.424,4.589 -4.264,8.032 -8.784,8.032"
         style="fill:#464f5d" /><path
         inkscape:connector-curvature="0"
         id="path49591"
         d="m 282.584,123.595 c -4.52,0 -8.36,-3.443 -8.783,-8.033 -0.441,-4.846 3.134,-9.145 7.989,-9.587 l 64.247,-5.844 c 20.039,-1.818 39.468,-8.678 56.214,-19.836 15.545,-10.372 28.681,-24.435 37.959,-40.678 l 20.1,-35.16 c 2.41,-4.237 7.804,-5.72 12.041,-3.284 4.237,2.419 5.711,7.812 3.284,12.041 l -20.092,35.16 c -10.637,18.609 -25.671,34.728 -43.502,46.61 -19.182,12.791 -41.445,20.648 -64.397,22.731 l -64.247,5.844 c -0.275,0.027 -0.548,0.036 -0.813,0.036"
         style="fill:#464f5d" /><path
         inkscape:connector-curvature="0"
         id="path49593"
         d="m 17.774,282.482 c -2.595,0 -5.155,-1.13 -6.903,-3.31 -3.046,-3.814 -2.428,-9.366 1.377,-12.412 l 44.138,-35.31 c 1.571,-1.254 3.505,-1.933 5.517,-1.933 h 61.793 c 4.882,0 8.828,3.955 8.828,8.828 0,4.873 -3.946,8.828 -8.828,8.828 H 65.001 L 23.282,280.55 c -1.633,1.297 -3.575,1.932 -5.508,1.932"
         style="fill:#464f5d" /><path
         inkscape:connector-curvature="0"
         id="path49595"
         d="m 494.446,282.482 c -1.933,0 -3.875,-0.636 -5.508,-1.933 l -41.719,-33.377 h -58.695 c -4.882,0 -8.828,-3.955 -8.828,-8.828 0,-4.873 3.946,-8.828 8.828,-8.828 h 61.793 c 2.013,0 3.946,0.68 5.517,1.933 l 44.138,35.31 c 3.805,3.046 4.423,8.598 1.377,12.412 -1.748,2.181 -4.308,3.311 -6.903,3.311"
         style="fill:#464f5d" /><path
         inkscape:connector-curvature="0"
         style="fill:#464f5d;stroke-width:0.48722079"
         d="m 245.72887,68.52803 c -0.0814,-0.102367 -0.16254,-0.211301 -0.23874,-0.327189 L 227.54526,41.125205 c -6.4122,-9.670836 -10.83858,-21.30597 -12.80228,-33.6569044 -1.82819,-11.4782992 -1.49451,-23.5120866 0.95497,-34.8095986 l 4.62978,-21.343444 c 0.55307,-2.571162 2.66363,-4.085042 4.70875,-3.382762 2.04512,0.689147 3.24927,3.348771 2.69067,5.919934 l -4.62732,21.34653 c -2.14007,9.858574 -2.4249,20.3645743 -0.83544,30.376893 1.71696,10.779109 5.57921,20.93397 11.17748,29.377554 l 17.94487,27.075637 c 1.35625,2.045805 1.13379,5.087473 -0.49099,6.789479 -1.5403,1.608908 -3.77807,1.45555 -5.16688,-0.290493"
         id="path50199" /><path
         inkscape:connector-curvature="0"
         style="fill:#464f5d;stroke-width:0.48722079"
         d="m 266.49125,68.528417 c -1.38881,1.746043 -3.62658,1.899401 -5.16687,0.28972 -1.62448,-1.70162 -1.84694,-4.743288 -0.491,-6.78948 l 17.94487,-27.075636 c 5.59858,-8.443198 9.46052,-18.598445 11.17749,-29.3775542 1.58945,-10.0115463 1.30462,-20.5183188 -0.83545,-30.3768948 l -4.62732,-21.34653 c -0.56136,-2.567688 0.64033,-5.22422 2.69067,-5.919934 2.04512,-0.70228 4.15507,0.8116 4.70875,3.382762 l 4.62979,21.343444 c 2.44947,11.297514 2.78284,23.3316874 0.95496,34.8096003 -1.96369,12.3509337 -6.39007,23.9860677 -12.80227,33.6569037 L 266.73,68.200455 c -0.0762,0.11666 -0.15732,0.225594 -0.23875,0.327962"
         id="path50201" /></g><path
       inkscape:connector-curvature="0"
       id="path49599"
       d="m 359.273,180.103 c -24.223,-30.349 -57.335,-52.25 -94.685,-62.914 l -8.483,-2.428 -8.474,2.428 c -37.35,10.664 -70.462,32.565 -94.685,62.914 -49.664,62.226 -126.358,176.34 -126.358,287.762 0,0 0.371,68.414 88.276,35.31 0,0 104.828,-45.612 141.241,-97.103 36.414,51.491 141.241,97.103 141.241,97.103 87.905,33.103 88.276,-35.31 88.276,-35.31 10e-4,-111.423 -76.685,-225.537 -126.349,-287.762"
       style="fill:#dbcb95" /><path
       inkscape:connector-curvature="0"
       id="path49601"
       d="m 264.592,117.185 -8.483,-2.428 -8.483,2.428 c -0.124,0.026 -0.23,0.079 -0.344,0.106 v 288.777 c 0,2.834 1.421,5.252 3.513,6.859 1.88,-2.269 3.681,-4.555 5.314,-6.859 1.633,2.304 3.443,4.59 5.332,6.859 2.074,-1.615 3.496,-4.025 3.496,-6.859 V 117.291 c -0.115,-0.027 -0.221,-0.08 -0.345,-0.106"
       style="fill:#b7a676" /><path
       inkscape:connector-curvature="0"
       id="path49609"
       d="m 211.972,88.284 c 0,-19.5 19.756,-35.31 44.138,-35.31 24.382,0 44.138,15.81 44.138,35.31 0,19.5 -19.756,35.31 -44.138,35.31 -24.382,0 -44.138,-15.81 -44.138,-35.31"
       style="fill:#95a5a5" /><g
       id="g49615"><path
         sodipodi:nodetypes="csc"
         inkscape:connector-curvature="0"
         id="path50219"
         d="m 160.9382,206.57594 c 0,-19.5 18.48246,-35.31 41.27866,-35.31 22.7962,0 41.27866,15.81 41.27866,35.31"
         style="fill:#b7a676;stroke-width:1.08121967" /><path
         style="fill:#b7a676;stroke-width:1.08121967"
         d="m 215.19879,206.57594 c 0,-19.5 18.48246,-35.31 41.27866,-35.31 22.7962,0 41.27866,15.81 41.27866,35.31"
         id="path50231"
         inkscape:connector-curvature="0"
         sodipodi:nodetypes="csc" /><path
         sodipodi:nodetypes="csc"
         inkscape:connector-curvature="0"
         id="path50233"
         d="m 272.71502,206.57594 c 0,-19.5 18.48246,-35.31 41.27866,-35.31 22.7962,0 41.27866,15.81 41.27866,35.31"
         style="fill:#b7a676;stroke-width:1.08121967" /><path
         style="fill:#b7a676;stroke-width:1.08121967"
         d="m 112.10367,254.86787 c 0,-19.5 18.48246,-35.31 41.27866,-35.31 22.7962,0 41.27866,15.81 41.27866,35.31"
         id="path50237"
         inkscape:connector-curvature="0"
         sodipodi:nodetypes="csc" /><path
         sodipodi:nodetypes="csc"
         inkscape:connector-curvature="0"
         id="path50239"
         d="m 178.30159,254.86787 c 0,-19.5 18.48246,-35.31 41.27866,-35.31 22.7962,0 41.27866,15.81 41.27866,35.31"
         style="fill:#b7a676;stroke-width:1.08121967" /><path
         style="fill:#b7a676;stroke-width:1.08121967"
         d="m 238.53085,254.86787 c 0,-19.5 18.48246,-35.31 41.27866,-35.31 22.7962,0 41.27866,15.81 41.27866,35.31"
         id="path50241"
         inkscape:connector-curvature="0"
         sodipodi:nodetypes="csc" /><path
         sodipodi:nodetypes="csc"
         inkscape:connector-curvature="0"
         id="path50243"
         d="m 306.89919,254.86787 c 0,-19.5 18.48246,-35.31 41.27866,-35.31 22.7962,0 41.27866,15.81 41.27866,35.31"
         style="fill:#b7a676;stroke-width:1.08121967" /><path
         style="fill:#b7a676;stroke-width:1.08121967"
         d="m 344.339,304.78761 c 0,-19.5 18.48246,-35.31 41.27866,-35.31 22.7962,0 41.27866,15.81 41.27866,35.31"
         id="path50245"
         inkscape:connector-curvature="0"
         sodipodi:nodetypes="csc" /><path
         sodipodi:nodetypes="csc"
         inkscape:connector-curvature="0"
         id="path50247"
         d="m 284.10974,304.78761 c 0,-19.5 18.48246,-35.31 41.27866,-35.31 22.7962,0 41.27866,15.81 41.27866,35.31"
         style="fill:#b7a676;stroke-width:1.08121967" /><path
         style="fill:#b7a676;stroke-width:1.08121967"
         d="m 229.84915,304.78761 c 0,-19.5 18.48246,-35.31 41.27866,-35.31 22.7962,0 41.27866,15.81 41.27866,35.31"
         id="path50249"
         inkscape:connector-curvature="0"
         sodipodi:nodetypes="csc" /><path
         sodipodi:nodetypes="csc"
         inkscape:connector-curvature="0"
         id="path50251"
         d="m 180.47201,304.78761 c 0,-19.5 18.48246,-35.31 41.27866,-35.31 22.7962,0 41.27866,15.81 41.27866,35.31"
         style="fill:#b7a676;stroke-width:1.08121967" /><path
         style="fill:#b7a676;stroke-width:1.08121967"
         d="m 135.97833,304.78761 c 0,-19.5 18.48246,-35.31 41.27866,-35.31 22.7962,0 41.27866,15.81 41.27866,35.31"
         id="path50253"
         inkscape:connector-curvature="0"
         sodipodi:nodetypes="csc" /><path
         sodipodi:nodetypes="csc"
         inkscape:connector-curvature="0"
         id="path50255"
         d="m 84.973371,304.78761 c 0,-19.5 18.482459,-35.31 41.278659,-35.31 22.7962,0 41.27866,15.81 41.27866,35.31"
         style="fill:#b7a676;stroke-width:1.08121967" /><path
         style="fill:#b7a676;stroke-width:1.08121967"
         d="m 57.30047,352.53693 c 0,-19.5 18.482459,-35.31 41.278659,-35.31 22.796201,0 41.278661,15.81 41.278661,35.31"
         id="path50257"
         inkscape:connector-curvature="0"
         sodipodi:nodetypes="csc" /><path
         sodipodi:nodetypes="csc"
         inkscape:connector-curvature="0"
         id="path50259"
         d="m 109.93324,352.53693 c 0,-19.5 18.48246,-35.31 41.27866,-35.31 22.7962,0 41.27866,15.81 41.27866,35.31"
         style="fill:#b7a676;stroke-width:1.08121967" /><path
         style="fill:#b7a676;stroke-width:1.08121967"
         d="m 162.02341,352.53693 c 0,-19.5 18.48246,-35.31 41.27866,-35.31 22.7962,0 41.27866,15.81 41.27866,35.31"
         id="path50261"
         inkscape:connector-curvature="0"
         sodipodi:nodetypes="csc" /><path
         sodipodi:nodetypes="csc"
         inkscape:connector-curvature="0"
         id="path50263"
         d="m 209.77273,352.53693 c 0,-19.5 18.48246,-35.31 41.27866,-35.31 22.7962,0 41.27866,15.81 41.27866,35.31"
         style="fill:#b7a676;stroke-width:1.08121967" /><path
         style="fill:#b7a676;stroke-width:1.08121967"
         d="m 267.28895,352.53693 c 0,-19.5 18.48246,-35.31 41.27866,-35.31 22.7962,0 41.27866,15.81 41.27866,35.31"
         id="path50265"
         inkscape:connector-curvature="0"
         sodipodi:nodetypes="csc" /><path
         sodipodi:nodetypes="csc"
         inkscape:connector-curvature="0"
         id="path50267"
         d="m 317.7513,352.53693 c 0,-19.5 18.48246,-35.31 41.27866,-35.31 22.7962,0 41.27866,15.81 41.27866,35.31"
         style="fill:#b7a676;stroke-width:1.08121967" /><path
         style="fill:#b7a676;stroke-width:1.08121967"
         d="m 367.67104,352.53693 c 0,-19.5 18.48246,-35.31 41.27866,-35.31 22.7962,0 41.27866,15.81 41.27866,35.31"
         id="path50269"
         inkscape:connector-curvature="0"
         sodipodi:nodetypes="csc" /><path
         style="fill:#b7a676;stroke-width:1.08121967"
         d="m 38.309265,405.1697 c 0,-19.5 18.48246,-35.31 41.27866,-35.31 22.796205,0 41.278665,15.81 41.278665,35.31"
         id="path50271"
         inkscape:connector-curvature="0"
         sodipodi:nodetypes="csc" /><path
         sodipodi:nodetypes="csc"
         inkscape:connector-curvature="0"
         id="path50273"
         d="m 81.717737,405.1697 c 0,-19.5 18.482463,-35.31 41.278663,-35.31 22.7962,0 41.27866,15.81 41.27866,35.31"
         style="fill:#b7a676;stroke-width:1.08121967" /><path
         style="fill:#b7a676;stroke-width:1.08121967"
         d="m 133.8079,405.1697 c 0,-19.5 18.48247,-35.31 41.27867,-35.31 22.7962,0 41.27866,15.81 41.27866,35.31"
         id="path50275"
         inkscape:connector-curvature="0"
         sodipodi:nodetypes="csc" /><path
         sodipodi:nodetypes="csc"
         inkscape:connector-curvature="0"
         id="path50277"
         d="m 185.35546,405.1697 c 0,-19.5 18.48247,-35.31 41.27867,-35.31 22.7962,0 41.27866,15.81 41.27866,35.31"
         style="fill:#b7a676;stroke-width:1.08121967" /><path
         style="fill:#b7a676;stroke-width:1.08121967"
         d="m 233.64739,405.1697 c 0,-19.5 18.48247,-35.31 41.27867,-35.31 22.7962,0 41.27866,15.81 41.27866,35.31"
         id="path50279"
         inkscape:connector-curvature="0"
         sodipodi:nodetypes="csc" /><path
         sodipodi:nodetypes="csc"
         inkscape:connector-curvature="0"
         id="path50281"
         d="m 287.90798,405.1697 c 0,-19.5 18.48247,-35.31 41.27867,-35.31 22.7962,0 41.27866,15.81 41.27866,35.31"
         style="fill:#b7a676;stroke-width:1.08121967" /><path
         style="fill:#b7a676;stroke-width:1.08121967"
         d="m 335.1147,405.1697 c 0,-19.5 18.48247,-35.31 41.27867,-35.31 22.7962,0 41.27866,15.81 41.27866,35.31"
         id="path50283"
         inkscape:connector-curvature="0"
         sodipodi:nodetypes="csc" /><path
         sodipodi:nodetypes="csc"
         inkscape:connector-curvature="0"
         id="path50285"
         d="m 386.11966,405.1697 c 0,-19.5 18.48247,-35.31 41.27867,-35.31 22.7962,0 41.27866,15.81 41.27866,35.31"
         style="fill:#b7a676;stroke-width:1.08121967" /><path
         sodipodi:nodetypes="csc"
         inkscape:connector-curvature="0"
         id="path50287"
         d="m 48.618777,454.00423 c 0,-19.5 18.48246,-35.31 41.27866,-35.31 22.796203,0 41.278663,15.81 41.278663,35.31"
         style="fill:#b7a676;stroke-width:1.08121967" /><path
         style="fill:#b7a676;stroke-width:1.08121967"
         d="m 99.081126,454.00423 c 0,-19.5 18.482464,-35.31 41.278664,-35.31 22.7962,0 41.27866,15.81 41.27866,35.31"
         id="path50289"
         inkscape:connector-curvature="0"
         sodipodi:nodetypes="csc" /><path
         style="fill:#b7a676;stroke-width:1.08121967"
         d="m 336.1999,454.00423 c 0,-19.5 18.48246,-35.31 41.27866,-35.31 22.79621,0 41.27867,15.81 41.27867,35.31"
         id="path50293"
         inkscape:connector-curvature="0"
         sodipodi:nodetypes="csc" /><path
         sodipodi:nodetypes="csc"
         inkscape:connector-curvature="0"
         id="path50295"
         d="m 386.66225,454.00423 c 0,-19.5 18.48247,-35.31 41.27867,-35.31 22.7962,0 41.27866,15.81 41.27866,35.31"
         style="fill:#b7a676;stroke-width:1.08121967" /></g></g><g
     transform="translate(914.86871,-369.64825)"
     id="g49619" /><g
     transform="translate(914.86871,-369.64825)"
     id="g49621" /><g
     transform="translate(914.86871,-369.64825)"
     id="g49623" /><g
     transform="translate(914.86871,-369.64825)"
     id="g49625" /><g
     transform="translate(914.86871,-369.64825)"
     id="g49627" /><g
     transform="translate(914.86871,-369.64825)"
     id="g49629" /><g
     transform="translate(914.86871,-369.64825)"
     id="g49631" /><g
     transform="translate(914.86871,-369.64825)"
     id="g49633" /><g
     transform="translate(914.86871,-369.64825)"
     id="g49635" /><g
     transform="translate(914.86871,-369.64825)"
     id="g49637" /><g
     transform="translate(914.86871,-369.64825)"
     id="g49639" /><g
     transform="translate(914.86871,-369.64825)"
     id="g49641" /><g
     transform="translate(914.86871,-369.64825)"
     id="g49643" /><g
     transform="translate(914.86871,-369.64825)"
     id="g49645" /><g
     transform="translate(914.86871,-369.64825)"
     id="g49647" /></g></svg>