<?xml version="1.0" encoding="UTF-8" standalone="no"?>
<!-- Generator: Adobe Illustrator 19.0.0, SVG Export Plug-In . SVG Version: 6.00 Build 0)  -->

<svg
   xmlns:dc="http://purl.org/dc/elements/1.1/"
   xmlns:cc="http://creativecommons.org/ns#"
   xmlns:rdf="http://www.w3.org/1999/02/22-rdf-syntax-ns#"
   xmlns:svg="http://www.w3.org/2000/svg"
   xmlns="http://www.w3.org/2000/svg"
   xmlns:sodipodi="http://sodipodi.sourceforge.net/DTD/sodipodi-0.dtd"
   xmlns:inkscape="http://www.inkscape.org/namespaces/inkscape"
   version="1.1"
   id="Layer_1"
   x="0px"
   y="0px"
   viewBox="0 0 494.34784 564.45993"
   xml:space="preserve"
   sodipodi:docname="ecb.svg"
   inkscape:version="0.92.3 (2405546, 2018-03-11)"
   width="494.34781"
   height="564.4599"><metadata
   id="metadata49654"><rdf:RDF><cc:Work
       rdf:about=""><dc:format>image/svg+xml</dc:format><dc:type
         rdf:resource="http://purl.org/dc/dcmitype/StillImage" /><dc:title></dc:title></cc:Work></rdf:RDF></metadata><defs
   id="defs49652" /><sodipodi:namedview
   pagecolor="#ffffff"
   bordercolor="#666666"
   borderopacity="1"
   objecttolerance="10"
   gridtolerance="10"
   guidetolerance="10"
   inkscape:pageopacity="0"
   inkscape:pageshadow="2"
   inkscape:window-width="2400"
   inkscape:window-height="1474"
   id="namedview49650"
   showgrid="false"
   inkscape:zoom="1.8429582"
   inkscape:cx="156.1539"
   inkscape:cy="277.81446"
   inkscape:window-x="0"
   inkscape:window-y="60"
   inkscape:window-maximized="1"
   inkscape:current-layer="Layer_1"
   fit-margin-top="0"
   fit-margin-left="0"
   fit-margin-right="0"
   fit-margin-bottom="0" />
<g
   id="g49617"
   transform="translate(-8.9360945,52.239724)">
	<g
   id="g49597">
		<path
   style="fill:#464f5d"
   d="m 229.636,123.595 c -0.265,0 -0.538,-0.009 -0.812,-0.035 l -64.247,-5.844 C 141.625,115.633 119.362,107.776 100.18,94.985 82.348,83.103 67.315,66.984 56.678,48.375 L 36.586,13.215 C 34.158,8.987 35.633,3.593 39.87,1.174 44.09,-1.262 49.492,0.221 51.911,4.458 l 20.1,35.16 c 9.278,16.243 22.413,30.305 37.959,40.678 16.746,11.158 36.175,18.017 56.214,19.836 l 64.247,5.844 c 4.855,0.441 8.43,4.74 7.989,9.587 -0.424,4.589 -4.264,8.032 -8.784,8.032"
   id="path49589"
   inkscape:connector-curvature="0" />
		<path
   style="fill:#464f5d"
   d="m 282.584,123.595 c -4.52,0 -8.36,-3.443 -8.783,-8.033 -0.441,-4.846 3.134,-9.145 7.989,-9.587 l 64.247,-5.844 c 20.039,-1.818 39.468,-8.678 56.214,-19.836 15.545,-10.372 28.681,-24.435 37.959,-40.678 l 20.1,-35.16 c 2.41,-4.237 7.804,-5.72 12.041,-3.284 4.237,2.419 5.711,7.812 3.284,12.041 l -20.092,35.16 c -10.637,18.609 -25.671,34.728 -43.502,46.61 -19.182,12.791 -41.445,20.648 -64.397,22.731 l -64.247,5.844 c -0.275,0.027 -0.548,0.036 -0.813,0.036"
   id="path49591"
   inkscape:connector-curvature="0" />
		<path
   style="fill:#464f5d"
   d="m 17.774,282.482 c -2.595,0 -5.155,-1.13 -6.903,-3.31 -3.046,-3.814 -2.428,-9.366 1.377,-12.412 l 44.138,-35.31 c 1.571,-1.254 3.505,-1.933 5.517,-1.933 h 61.793 c 4.882,0 8.828,3.955 8.828,8.828 0,4.873 -3.946,8.828 -8.828,8.828 H 65.001 L 23.282,280.55 c -1.633,1.297 -3.575,1.932 -5.508,1.932"
   id="path49593"
   inkscape:connector-curvature="0" />
		<path
   style="fill:#464f5d"
   d="m 494.446,282.482 c -1.933,0 -3.875,-0.636 -5.508,-1.933 l -41.719,-33.377 h -58.695 c -4.882,0 -8.828,-3.955 -8.828,-8.828 0,-4.873 3.946,-8.828 8.828,-8.828 h 61.793 c 2.013,0 3.946,0.68 5.517,1.933 l 44.138,35.31 c 3.805,3.046 4.423,8.598 1.377,12.412 -1.748,2.181 -4.308,3.311 -6.903,3.311"
   id="path49595"
   inkscape:connector-curvature="0" />
	<path
   id="path50199"
   d="m 245.72887,68.52803 c -0.0814,-0.102367 -0.16254,-0.211301 -0.23874,-0.327189 L 227.54526,41.125205 c -6.4122,-9.670836 -10.83858,-21.30597 -12.80228,-33.6569044 -1.82819,-11.4782992 -1.49451,-23.5120866 0.95497,-34.8095986 l 4.62978,-21.343444 c 0.55307,-2.571162 2.66363,-4.085042 4.70875,-3.382762 2.04512,0.689147 3.24927,3.348771 2.69067,5.919934 l -4.62732,21.34653 c -2.14007,9.858574 -2.4249,20.3645743 -0.83544,30.376893 1.71696,10.779109 5.57921,20.93397 11.17748,29.377554 l 17.94487,27.075637 c 1.35625,2.045805 1.13379,5.087473 -0.49099,6.789479 -1.5403,1.608908 -3.77807,1.45555 -5.16688,-0.290493"
   style="fill:#464f5d;stroke-width:0.48722079"
   inkscape:connector-curvature="0" /><path
   id="path50201"
   d="m 266.49125,68.528417 c -1.38881,1.746043 -3.62658,1.899401 -5.16687,0.28972 -1.62448,-1.70162 -1.84694,-4.743288 -0.491,-6.78948 l 17.94487,-27.075636 c 5.59858,-8.443198 9.46052,-18.598445 11.17749,-29.3775542 1.58945,-10.0115463 1.30462,-20.5183188 -0.83545,-30.3768948 l -4.62732,-21.34653 c -0.56136,-2.567688 0.64033,-5.22422 2.69067,-5.919934 2.04512,-0.70228 4.15507,0.8116 4.70875,3.382762 l 4.62979,21.343444 c 2.44947,11.297514 2.78284,23.3316874 0.95496,34.8096003 -1.96369,12.3509337 -6.39007,23.9860677 -12.80227,33.6569037 L 266.73,68.200455 c -0.0762,0.11666 -0.15732,0.225594 -0.23875,0.327962"
   style="fill:#464f5d;stroke-width:0.48722079"
   inkscape:connector-curvature="0" /></g>
	<path
   style="fill:#dbcb95"
   d="m 359.273,180.103 c -24.223,-30.349 -57.335,-52.25 -94.685,-62.914 l -8.483,-2.428 -8.474,2.428 c -37.35,10.664 -70.462,32.565 -94.685,62.914 -49.664,62.226 -126.358,176.34 -126.358,287.762 0,0 0.371,68.414 88.276,35.31 0,0 104.828,-45.612 141.241,-97.103 36.414,51.491 141.241,97.103 141.241,97.103 87.905,33.103 88.276,-35.31 88.276,-35.31 10e-4,-111.423 -76.685,-225.537 -126.349,-287.762"
   id="path49599"
   inkscape:connector-curvature="0" />
	<path
   style="fill:#b7a676"
   d="m 264.592,117.185 -8.483,-2.428 -8.483,2.428 c -0.124,0.026 -0.23,0.079 -0.344,0.106 v 288.777 c 0,2.834 1.421,5.252 3.513,6.859 1.88,-2.269 3.681,-4.555 5.314,-6.859 1.633,2.304 3.443,4.59 5.332,6.859 2.074,-1.615 3.496,-4.025 3.496,-6.859 V 117.291 c -0.115,-0.027 -0.221,-0.08 -0.345,-0.106"
   id="path49601"
   inkscape:connector-curvature="0" />
	
	<path
   style="fill:#95a5a5"
   d="m 211.972,88.284 c 0,-19.5 19.756,-35.31 44.138,-35.31 24.382,0 44.138,15.81 44.138,35.31 0,19.5 -19.756,35.31 -44.138,35.31 -24.382,0 -44.138,-15.81 -44.138,-35.31"
   id="path49609"
   inkscape:connector-curvature="0" />
	<g
   id="g49615">
		
		
	<path
   style="fill:#b7a676;stroke-width:1.08121967"
   d="m 160.9382,206.57594 c 0,-19.5 18.48246,-35.31 41.27866,-35.31 22.7962,0 41.27866,15.81 41.27866,35.31"
   id="path50219"
   inkscape:connector-curvature="0"
   sodipodi:nodetypes="csc" /><path
   sodipodi:nodetypes="csc"
   inkscape:connector-curvature="0"
   id="path50231"
   d="m 215.19879,206.57594 c 0,-19.5 18.48246,-35.31 41.27866,-35.31 22.7962,0 41.27866,15.81 41.27866,35.31"
   style="fill:#b7a676;stroke-width:1.08121967" /><path
   style="fill:#b7a676;stroke-width:1.08121967"
   d="m 272.71502,206.57594 c 0,-19.5 18.48246,-35.31 41.27866,-35.31 22.7962,0 41.27866,15.81 41.27866,35.31"
   id="path50233"
   inkscape:connector-curvature="0"
   sodipodi:nodetypes="csc" /><path
   sodipodi:nodetypes="csc"
   inkscape:connector-curvature="0"
   id="path50237"
   d="m 112.10367,254.86787 c 0,-19.5 18.48246,-35.31 41.27866,-35.31 22.7962,0 41.27866,15.81 41.27866,35.31"
   style="fill:#b7a676;stroke-width:1.08121967" /><path
   style="fill:#b7a676;stroke-width:1.08121967"
   d="m 178.30159,254.86787 c 0,-19.5 18.48246,-35.31 41.27866,-35.31 22.7962,0 41.27866,15.81 41.27866,35.31"
   id="path50239"
   inkscape:connector-curvature="0"
   sodipodi:nodetypes="csc" /><path
   sodipodi:nodetypes="csc"
   inkscape:connector-curvature="0"
   id="path50241"
   d="m 238.53085,254.86787 c 0,-19.5 18.48246,-35.31 41.27866,-35.31 22.7962,0 41.27866,15.81 41.27866,35.31"
   style="fill:#b7a676;stroke-width:1.08121967" /><path
   style="fill:#b7a676;stroke-width:1.08121967"
   d="m 306.89919,254.86787 c 0,-19.5 18.48246,-35.31 41.27866,-35.31 22.7962,0 41.27866,15.81 41.27866,35.31"
   id="path50243"
   inkscape:connector-curvature="0"
   sodipodi:nodetypes="csc" /><path
   sodipodi:nodetypes="csc"
   inkscape:connector-curvature="0"
   id="path50245"
   d="m 344.339,304.78761 c 0,-19.5 18.48246,-35.31 41.27866,-35.31 22.7962,0 41.27866,15.81 41.27866,35.31"
   style="fill:#b7a676;stroke-width:1.08121967" /><path
   style="fill:#b7a676;stroke-width:1.08121967"
   d="m 284.10974,304.78761 c 0,-19.5 18.48246,-35.31 41.27866,-35.31 22.7962,0 41.27866,15.81 41.27866,35.31"
   id="path50247"
   inkscape:connector-curvature="0"
   sodipodi:nodetypes="csc" /><path
   sodipodi:nodetypes="csc"
   inkscape:connector-curvature="0"
   id="path50249"
   d="m 229.84915,304.78761 c 0,-19.5 18.48246,-35.31 41.27866,-35.31 22.7962,0 41.27866,15.81 41.27866,35.31"
   style="fill:#b7a676;stroke-width:1.08121967" /><path
   style="fill:#b7a676;stroke-width:1.08121967"
   d="m 180.47201,304.78761 c 0,-19.5 18.48246,-35.31 41.27866,-35.31 22.7962,0 41.27866,15.81 41.27866,35.31"
   id="path50251"
   inkscape:connector-curvature="0"
   sodipodi:nodetypes="csc" /><path
   sodipodi:nodetypes="csc"
   inkscape:connector-curvature="0"
   id="path50253"
   d="m 135.97833,304.78761 c 0,-19.5 18.48246,-35.31 41.27866,-35.31 22.7962,0 41.27866,15.81 41.27866,35.31"
   style="fill:#b7a676;stroke-width:1.08121967" /><path
   style="fill:#b7a676;stroke-width:1.08121967"
   d="m 84.973371,304.78761 c 0,-19.5 18.482459,-35.31 41.278659,-35.31 22.7962,0 41.27866,15.81 41.27866,35.31"
   id="path50255"
   inkscape:connector-curvature="0"
   sodipodi:nodetypes="csc" /><path
   sodipodi:nodetypes="csc"
   inkscape:connector-curvature="0"
   id="path50257"
   d="m 57.30047,352.53693 c 0,-19.5 18.482459,-35.31 41.278659,-35.31 22.796201,0 41.278661,15.81 41.278661,35.31"
   style="fill:#b7a676;stroke-width:1.08121967" /><path
   style="fill:#b7a676;stroke-width:1.08121967"
   d="m 109.93324,352.53693 c 0,-19.5 18.48246,-35.31 41.27866,-35.31 22.7962,0 41.27866,15.81 41.27866,35.31"
   id="path50259"
   inkscape:connector-curvature="0"
   sodipodi:nodetypes="csc" /><path
   sodipodi:nodetypes="csc"
   inkscape:connector-curvature="0"
   id="path50261"
   d="m 162.02341,352.53693 c 0,-19.5 18.48246,-35.31 41.27866,-35.31 22.7962,0 41.27866,15.81 41.27866,35.31"
   style="fill:#b7a676;stroke-width:1.08121967" /><path
   style="fill:#b7a676;stroke-width:1.08121967"
   d="m 209.77273,352.53693 c 0,-19.5 18.48246,-35.31 41.27866,-35.31 22.7962,0 41.27866,15.81 41.27866,35.31"
   id="path50263"
   inkscape:connector-curvature="0"
   sodipodi:nodetypes="csc" /><path
   sodipodi:nodetypes="csc"
   inkscape:connector-curvature="0"
   id="path50265"
   d="m 267.28895,352.53693 c 0,-19.5 18.48246,-35.31 41.27866,-35.31 22.7962,0 41.27866,15.81 41.27866,35.31"
   style="fill:#b7a676;stroke-width:1.08121967" /><path
   style="fill:#b7a676;stroke-width:1.08121967"
   d="m 317.7513,352.53693 c 0,-19.5 18.48246,-35.31 41.27866,-35.31 22.7962,0 41.27866,15.81 41.27866,35.31"
   id="path50267"
   inkscape:connector-curvature="0"
   sodipodi:nodetypes="csc" /><path
   sodipodi:nodetypes="csc"
   inkscape:connector-curvature="0"
   id="path50269"
   d="m 367.67104,352.53693 c 0,-19.5 18.48246,-35.31 41.27866,-35.31 22.7962,0 41.27866,15.81 41.27866,35.31"
   style="fill:#b7a676;stroke-width:1.08121967" /><path
   sodipodi:nodetypes="csc"
   inkscape:connector-curvature="0"
   id="path50271"
   d="m 38.309265,405.1697 c 0,-19.5 18.48246,-35.31 41.27866,-35.31 22.796205,0 41.278665,15.81 41.278665,35.31"
   style="fill:#b7a676;stroke-width:1.08121967" /><path
   style="fill:#b7a676;stroke-width:1.08121967"
   d="m 81.717737,405.1697 c 0,-19.5 18.482463,-35.31 41.278663,-35.31 22.7962,0 41.27866,15.81 41.27866,35.31"
   id="path50273"
   inkscape:connector-curvature="0"
   sodipodi:nodetypes="csc" /><path
   sodipodi:nodetypes="csc"
   inkscape:connector-curvature="0"
   id="path50275"
   d="m 133.8079,405.1697 c 0,-19.5 18.48247,-35.31 41.27867,-35.31 22.7962,0 41.27866,15.81 41.27866,35.31"
   style="fill:#b7a676;stroke-width:1.08121967" /><path
   style="fill:#b7a676;stroke-width:1.08121967"
   d="m 185.35546,405.1697 c 0,-19.5 18.48247,-35.31 41.27867,-35.31 22.7962,0 41.27866,15.81 41.27866,35.31"
   id="path50277"
   inkscape:connector-curvature="0"
   sodipodi:nodetypes="csc" /><path
   sodipodi:nodetypes="csc"
   inkscape:connector-curvature="0"
   id="path50279"
   d="m 233.64739,405.1697 c 0,-19.5 18.48247,-35.31 41.27867,-35.31 22.7962,0 41.27866,15.81 41.27866,35.31"
   style="fill:#b7a676;stroke-width:1.08121967" /><path
   style="fill:#b7a676;stroke-width:1.08121967"
   d="m 287.90798,405.1697 c 0,-19.5 18.48247,-35.31 41.27867,-35.31 22.7962,0 41.27866,15.81 41.27866,35.31"
   id="path50281"
   inkscape:connector-curvature="0"
   sodipodi:nodetypes="csc" /><path
   sodipodi:nodetypes="csc"
   inkscape:connector-curvature="0"
   id="path50283"
   d="m 335.1147,405.1697 c 0,-19.5 18.48247,-35.31 41.27867,-35.31 22.7962,0 41.27866,15.81 41.27866,35.31"
   style="fill:#b7a676;stroke-width:1.08121967" /><path
   style="fill:#b7a676;stroke-width:1.08121967"
   d="m 386.11966,405.1697 c 0,-19.5 18.48247,-35.31 41.27867,-35.31 22.7962,0 41.27866,15.81 41.27866,35.31"
   id="path50285"
   inkscape:connector-curvature="0"
   sodipodi:nodetypes="csc" /><path
   style="fill:#b7a676;stroke-width:1.08121967"
   d="m 48.618777,454.00423 c 0,-19.5 18.48246,-35.31 41.27866,-35.31 22.796203,0 41.278663,15.81 41.278663,35.31"
   id="path50287"
   inkscape:connector-curvature="0"
   sodipodi:nodetypes="csc" /><path
   sodipodi:nodetypes="csc"
   inkscape:connector-curvature="0"
   id="path50289"
   d="m 99.081126,454.00423 c 0,-19.5 18.482464,-35.31 41.278664,-35.31 22.7962,0 41.27866,15.81 41.27866,35.31"
   style="fill:#b7a676;stroke-width:1.08121967" /><path
   sodipodi:nodetypes="csc"
   inkscape:connector-curvature="0"
   id="path50293"
   d="m 336.1999,454.00423 c 0,-19.5 18.48246,-35.31 41.27866,-35.31 22.79621,0 41.27867,15.81 41.27867,35.31"
   style="fill:#b7a676;stroke-width:1.08121967" /><path
   style="fill:#b7a676;stroke-width:1.08121967"
   d="m 386.66225,454.00423 c 0,-19.5 18.48247,-35.31 41.27867,-35.31 22.7962,0 41.27866,15.81 41.27866,35.31"
   id="path50295"
   inkscape:connector-curvature="0"
   sodipodi:nodetypes="csc" /></g>
</g>
<g
   id="g49619"
   transform="translate(-8.9360945,52.239724)">
</g>
<g
   id="g49621"
   transform="translate(-8.9360945,52.239724)">
</g>
<g
   id="g49623"
   transform="translate(-8.9360945,52.239724)">
</g>
<g
   id="g49625"
   transform="translate(-8.9360945,52.239724)">
</g>
<g
   id="g49627"
   transform="translate(-8.9360945,52.239724)">
</g>
<g
   id="g49629"
   transform="translate(-8.9360945,52.239724)">
</g>
<g
   id="g49631"
   transform="translate(-8.9360945,52.239724)">
</g>
<g
   id="g49633"
   transform="translate(-8.9360945,52.239724)">
</g>
<g
   id="g49635"
   transform="translate(-8.9360945,52.239724)">
</g>
<g
   id="g49637"
   transform="translate(-8.9360945,52.239724)">
</g>
<g
   id="g49639"
   transform="translate(-8.9360945,52.239724)">
</g>
<g
   id="g49641"
   transform="translate(-8.9360945,52.239724)">
</g>
<g
   id="g49643"
   transform="translate(-8.9360945,52.239724)">
</g>
<g
   id="g49645"
   transform="translate(-8.9360945,52.239724)">
</g>
<g
   id="g49647"
   transform="translate(-8.9360945,52.239724)">
</g>
</svg>